<svg width="88" height="43" viewBox="0 0 88 43" fill="none" xmlns="http://www.w3.org/2000/svg">
<path d="M20.4898 14.1034V21.4132C20.4898 24.3025 19.591 26.6659 17.7935 28.5033C15.9028 30.434 13.4396 31.3993 10.4038 31.3993C7.36805 31.3993 4.90482 30.434 3.01412 28.5033C1.21662 26.6659 0.317871 24.3025 0.317871 21.4132V10.4285C0.317871 7.5392 1.21662 5.17582 3.01412 3.33838C4.90482 1.40773 7.36805 0.442412 10.4038 0.442412C13.5461 0.442412 16.0093 1.40773 17.7935 3.33838C19.591 5.26902 20.4898 7.49925 20.4898 10.0291L16.6951 11.8266H16.4953V10.4285C16.4953 8.64432 16.016 7.19967 15.0573 6.09454C13.8723 4.72312 12.3212 4.03741 10.4038 4.03741C8.48649 4.03741 6.93532 4.72312 5.7503 6.09454C4.79164 7.19967 4.31231 8.64432 4.31231 10.4285V21.4132C4.31231 23.1974 4.79164 24.642 5.7503 25.7472C6.93532 27.1186 8.48649 27.8043 10.4038 27.8043C12.3212 27.8043 13.8723 27.1186 15.0573 25.7472C16.016 24.642 16.4953 23.3305 16.4953 21.8126V17.7383H9.54502V17.5386L11.1628 14.1034H20.4898Z" fill="white"/>
<path d="M31.655 21.4132C31.655 23.1974 32.1344 24.642 33.093 25.7472C34.278 27.1186 35.8292 27.8043 37.7465 27.8043C39.6639 27.8043 41.215 27.1186 42.4001 25.7472C43.3587 24.642 43.8381 23.1974 43.8381 21.4132V10.4285C43.8381 8.64432 43.3587 7.19967 42.4001 6.09454C41.215 4.72312 39.6639 4.03741 37.7465 4.03741C35.8292 4.03741 34.278 4.72312 33.093 6.09454C32.1344 7.19967 31.655 8.64432 31.655 10.4285V21.4132ZM27.6606 21.4132V10.4285C27.6606 7.5392 28.5593 5.17582 30.3568 3.33838C32.2475 1.40773 34.7108 0.442412 37.7465 0.442412C40.7823 0.442412 43.2455 1.40773 45.1362 3.33838C46.9337 5.16251 47.8325 7.52588 47.8325 10.4285V21.4132C47.8325 24.3025 46.9337 26.6659 45.1362 28.5033C43.2455 30.434 40.7823 31.3993 37.7465 31.3993C34.7108 31.3993 32.2475 30.434 30.3568 28.5033C28.5593 26.6659 27.6606 24.3025 27.6606 21.4132Z" fill="white"/>
<path d="M58.9977 27.4049H64.6898C66.7003 27.4049 68.2981 26.7724 69.4831 25.5075C70.3486 24.5888 70.7813 23.3771 70.7813 21.8726C70.7813 20.3147 70.322 19.0032 69.4032 17.938C68.4046 16.7131 66.8335 16.1006 64.6898 16.1006H58.9977V27.4049ZM58.9977 12.5056H64.6898C66.0213 12.5056 67.0931 12.0729 67.9053 11.2074C68.6243 10.4352 68.9838 9.4299 68.9838 8.19162C68.9838 7.1797 68.5511 6.26763 67.6856 5.45543C66.9134 4.77638 65.9148 4.43685 64.6898 4.43685H58.9977V12.5056ZM55.0033 30.9999V1.84047L57.1204 0.841856H64.6898C66.94 0.841856 68.8107 1.45434 70.302 2.6793C72.0729 4.11729 72.9583 5.96139 72.9583 8.21159C72.9583 10.5017 71.9464 12.4058 69.9225 13.9236C70.575 14.2032 71.2207 14.6227 71.8598 15.1819C73.8038 16.9528 74.7758 19.1497 74.7758 21.7727C74.7758 24.409 73.9236 26.5727 72.2193 28.2637C70.3952 30.0878 67.8854 30.9999 64.6898 30.9999H55.0033Z" fill="white"/>
<path d="M81.5471 31.7987V1.84047L85.3419 0.0429688H85.5416V30.0012L81.7469 31.7987H81.5471Z" fill="white"/>
<path d="M1.49815 39.0089C1.49815 39.3962 1.54656 39.7311 1.64339 40.0135C1.74021 40.2959 1.86663 40.5299 2.02262 40.7155C2.17862 40.8984 2.35479 41.0342 2.55114 41.1229C2.75017 41.2117 2.95055 41.2561 3.15227 41.2561C3.36206 41.2561 3.55168 41.2144 3.72113 41.131C3.89058 41.0449 4.03851 40.9333 4.16492 40.7962C4.29402 40.6563 4.40026 40.4976 4.48364 40.3201C4.56702 40.1426 4.62754 39.9597 4.66519 39.7714H5.62943C5.57025 40.0888 5.47208 40.386 5.33491 40.663C5.20043 40.94 5.02829 41.1808 4.8185 41.3852C4.6114 41.5896 4.36799 41.751 4.08826 41.8693C3.80854 41.985 3.49654 42.0428 3.15227 42.0428C2.75689 42.0428 2.39783 41.9756 2.07507 41.8411C1.75501 41.7039 1.48201 41.5049 1.25608 41.244C1.03015 40.9831 0.855322 40.6644 0.731599 40.2878C0.610566 39.9113 0.550049 39.4823 0.550049 39.0008C0.550049 38.7534 0.5756 38.5113 0.626703 38.2746C0.680496 38.0352 0.757151 37.8093 0.856667 37.5968C0.956184 37.3843 1.07991 37.1894 1.22784 37.0118C1.37846 36.8316 1.54925 36.677 1.74021 36.5479C1.93118 36.4161 2.14366 36.3139 2.37766 36.2413C2.61434 36.1686 2.86986 36.1323 3.1442 36.1323C3.49385 36.1323 3.80585 36.1821 4.08019 36.2816C4.35454 36.3811 4.59526 36.5196 4.80236 36.6971C5.01215 36.872 5.18698 37.0804 5.32684 37.3225C5.46939 37.5646 5.58236 37.8295 5.66573 38.1173H4.67326C4.53071 37.7138 4.33437 37.4139 4.08423 37.2176C3.83409 37.0186 3.52075 36.919 3.1442 36.919C2.90213 36.919 2.68024 36.9755 2.47852 37.0885C2.27679 37.1988 2.10331 37.3494 1.95807 37.5403C1.81283 37.7286 1.69987 37.9492 1.61918 38.202C1.53849 38.4548 1.49815 38.7238 1.49815 39.0089Z" fill="white"/>
<path d="M9.84301 36.2735L11.9006 41.9016H10.9121L10.2989 40.2555H8.27361C8.17947 40.5272 8.07995 40.8029 7.97506 41.0826C7.87285 41.3596 7.77468 41.6326 7.68054 41.9016H6.68807L8.74564 36.2735H9.84301ZM9.29029 37.4556L8.57215 39.4567H10.0004L9.29029 37.4556Z" fill="white"/>
<path d="M14.0001 39.9368C14.0109 40.1278 14.0485 40.3039 14.1131 40.4653C14.1803 40.624 14.2677 40.7612 14.3753 40.8768C14.4856 40.9925 14.6133 41.0826 14.7586 41.1471C14.9038 41.209 15.0639 41.2399 15.2387 41.2399C15.392 41.2399 15.5386 41.2238 15.6784 41.1915C15.8183 41.1593 15.942 41.1081 16.0496 41.0382C16.1572 40.9656 16.2433 40.8715 16.3078 40.7558C16.3724 40.6375 16.4046 40.4936 16.4046 40.3241C16.4046 40.1708 16.3576 40.0417 16.2634 39.9368C16.172 39.8319 16.051 39.7418 15.9003 39.6665C15.7497 39.5885 15.5776 39.5186 15.3839 39.4567C15.1903 39.3922 14.9926 39.3263 14.7909 39.259C14.5918 39.1918 14.3955 39.1165 14.2018 39.0331C14.0082 38.947 13.836 38.8421 13.6854 38.7184C13.5348 38.5947 13.4124 38.4468 13.3183 38.2746C13.2268 38.1025 13.1811 37.8954 13.1811 37.6533C13.1811 37.4059 13.2295 37.188 13.3264 36.9997C13.4232 36.8088 13.559 36.6501 13.7338 36.5237C13.9113 36.3946 14.1211 36.2977 14.3632 36.2332C14.6053 36.1659 14.8715 36.1323 15.162 36.1323C15.4202 36.1323 15.6489 36.1592 15.8479 36.213C16.0469 36.2641 16.2204 36.334 16.3683 36.4228C16.519 36.5116 16.6454 36.6165 16.7476 36.7375C16.8498 36.8585 16.9332 36.9876 16.9977 37.1248C17.0649 37.2593 17.1147 37.4005 17.147 37.5484C17.1793 37.6937 17.2008 37.8362 17.2115 37.9761H16.2473C16.2312 37.7959 16.1908 37.6399 16.1263 37.5081C16.0644 37.3763 15.9851 37.2674 15.8882 37.1813C15.7941 37.0952 15.6838 37.032 15.5574 36.9917C15.4337 36.9486 15.3019 36.9271 15.162 36.9271C15.0356 36.9271 14.9105 36.9406 14.7868 36.9675C14.6658 36.9917 14.5569 37.032 14.46 37.0885C14.3632 37.145 14.2852 37.2203 14.226 37.3144C14.1669 37.4059 14.1373 37.5188 14.1373 37.6533C14.1373 37.8093 14.183 37.9411 14.2745 38.0487C14.3686 38.1536 14.491 38.2464 14.6416 38.3271C14.7922 38.4078 14.9643 38.4804 15.158 38.5449C15.3516 38.6068 15.548 38.6727 15.747 38.7426C15.9487 38.8099 16.1464 38.8865 16.3401 38.9726C16.5337 39.056 16.7059 39.1582 16.8565 39.2792C17.0071 39.4002 17.1282 39.5455 17.2196 39.7149C17.3137 39.8844 17.3608 40.0874 17.3608 40.3241C17.3608 40.6092 17.307 40.8594 17.1994 41.0745C17.0945 41.287 16.9479 41.4659 16.7597 41.6111C16.5714 41.7537 16.3468 41.8612 16.0859 41.9339C15.8277 42.0065 15.5453 42.0428 15.2387 42.0428C14.9617 42.0428 14.6913 41.9944 14.4278 41.8976C14.1669 41.8007 13.9329 41.6622 13.7258 41.482C13.5214 41.2991 13.3546 41.0772 13.2255 40.8163C13.0991 40.5554 13.0318 40.2623 13.0238 39.9368H14.0001Z" fill="white"/>
<path d="M19.7952 36.2735V38.5974H22.3369V36.2735H23.2971V41.9016H22.3369V39.3801H19.7952V41.9016H18.8431V36.2735H19.7952Z" fill="white"/>
<path d="M26.2035 36.2735L27.777 40.6872L29.3867 36.2735H30.4518V41.9016H29.5037V38.1818L28.2046 41.9016H27.4018L26.0825 38.1738V41.9016H25.1304V36.2735H26.2035Z" fill="white"/>
<path d="M36.2792 36.2735V37.0764H33.2574V38.5974H36.0895V39.4083H33.2574V41.0826H36.4123V41.9016H32.3052V36.2735H36.2792Z" fill="white"/>
<path d="M42.2276 37.9277C42.2276 38.1724 42.163 38.4037 42.0339 38.6216C41.9048 38.8368 41.7098 39.0237 41.4489 39.1824C41.5753 39.2254 41.6829 39.2873 41.7717 39.368C41.8604 39.4486 41.933 39.5401 41.9895 39.6423C42.046 39.7418 42.0864 39.8494 42.1106 39.9651C42.1375 40.0807 42.1509 40.195 42.1509 40.308V41.1149C42.1509 41.2198 42.1765 41.3408 42.2276 41.478C42.2787 41.6151 42.3472 41.7564 42.4333 41.9016H41.3924C41.3521 41.837 41.3185 41.7698 41.2916 41.6999C41.2674 41.6299 41.2485 41.5627 41.2351 41.4981C41.2216 41.4309 41.2122 41.3677 41.2068 41.3085C41.2042 41.2467 41.2028 41.1942 41.2028 41.1512V40.2918C41.2028 40.2085 41.188 40.1264 41.1584 40.0457C41.1315 39.9624 41.0872 39.8884 41.0253 39.8238C40.9634 39.7566 40.8814 39.7028 40.7792 39.6625C40.677 39.6194 40.5533 39.5979 40.408 39.5979H38.9718V41.9016H38.0196V36.2735H40.408C40.6985 36.2735 40.9567 36.3219 41.1826 36.4188C41.4086 36.5156 41.5982 36.642 41.7515 36.798C41.9075 36.954 42.0258 37.1315 42.1065 37.3306C42.1872 37.5269 42.2276 37.7259 42.2276 37.9277ZM38.9718 38.7951H40.408C40.5237 38.7951 40.6326 38.7749 40.7348 38.7345C40.8397 38.6915 40.9312 38.6337 41.0092 38.5611C41.0898 38.4858 41.1531 38.3957 41.1988 38.2908C41.2445 38.1859 41.2674 38.0702 41.2674 37.9438C41.2674 37.8201 41.2458 37.7058 41.2028 37.6009C41.1598 37.4933 41.0993 37.4018 41.0213 37.3265C40.9459 37.2485 40.8558 37.188 40.7509 37.145C40.6461 37.0992 40.5317 37.0764 40.408 37.0764H38.9718V38.7951Z" fill="white"/>
<path d="M47.9904 36.2735V37.0764H44.9686V38.5974H47.8008V39.4083H44.9686V41.0826H48.1235V41.9016H44.0164V36.2735H47.9904Z" fill="white"/>
<path d="M55.9173 36.2735V37.0764H52.9842V38.5974H55.5259V39.4083H52.9842V41.9016H52.0321V36.2735H55.9173Z" fill="white"/>
<path d="M62.3982 39.0775C62.3982 39.5132 62.3404 39.9126 62.2247 40.2757C62.1091 40.6388 61.9396 40.9522 61.7164 41.2157C61.4958 41.4766 61.2228 41.6797 60.8974 41.8249C60.5719 41.9702 60.2008 42.0428 59.7839 42.0428C59.3697 42.0428 59.0012 41.9702 58.6784 41.8249C58.3557 41.6797 58.084 41.4766 57.8635 41.2157C57.6429 40.9522 57.4748 40.6388 57.3592 40.2757C57.2462 39.9099 57.1897 39.5078 57.1897 39.0694C57.1897 38.6337 57.2462 38.2356 57.3592 37.8752C57.4748 37.5148 57.6429 37.2055 57.8635 36.9473C58.084 36.6891 58.3557 36.4887 58.6784 36.3462C59.0012 36.2036 59.3697 36.1323 59.7839 36.1323C60.2008 36.1323 60.5719 36.2036 60.8974 36.3462C61.2228 36.4887 61.4958 36.6904 61.7164 36.9513C61.9396 37.2095 62.1091 37.5202 62.2247 37.8833C62.3404 38.2437 62.3982 38.6418 62.3982 39.0775ZM61.438 39.0694C61.438 38.7278 61.395 38.4252 61.3089 38.1617C61.2255 37.8954 61.1085 37.6708 60.9579 37.4879C60.81 37.305 60.6352 37.1665 60.4334 37.0724C60.2317 36.9755 60.0152 36.9271 59.7839 36.9271C59.5499 36.9271 59.3334 36.9755 59.1343 37.0724C58.9353 37.1665 58.7618 37.305 58.6139 37.4879C58.466 37.6708 58.3503 37.8954 58.2669 38.1617C58.1836 38.4252 58.1419 38.7278 58.1419 39.0694C58.1419 39.4083 58.1836 39.7122 58.2669 39.9812C58.3503 40.2502 58.466 40.4788 58.6139 40.667C58.7618 40.8526 58.9353 40.9952 59.1343 41.0947C59.3334 41.1915 59.5499 41.2399 59.7839 41.2399C60.0152 41.2399 60.2317 41.1915 60.4334 41.0947C60.6352 40.9952 60.81 40.8526 60.9579 40.667C61.1085 40.4788 61.2255 40.2502 61.3089 39.9812C61.395 39.7122 61.438 39.4083 61.438 39.0694Z" fill="white"/>
<path d="M68.1368 37.9277C68.1368 38.1724 68.0723 38.4037 67.9432 38.6216C67.8141 38.8368 67.6191 39.0237 67.3582 39.1824C67.4846 39.2254 67.5922 39.2873 67.6809 39.368C67.7697 39.4486 67.8423 39.5401 67.8988 39.6423C67.9553 39.7418 67.9956 39.8494 68.0198 39.9651C68.0467 40.0807 68.0602 40.195 68.0602 40.308V41.1149C68.0602 41.2198 68.0857 41.3408 68.1368 41.478C68.1879 41.6151 68.2565 41.7564 68.3426 41.9016H67.3017C67.2613 41.837 67.2277 41.7698 67.2008 41.6999C67.1766 41.6299 67.1578 41.5627 67.1443 41.4981C67.1309 41.4309 67.1215 41.3677 67.1161 41.3085C67.1134 41.2467 67.1121 41.1942 67.1121 41.1512V40.2918C67.1121 40.2085 67.0973 40.1264 67.0677 40.0457C67.0408 39.9624 66.9964 39.8884 66.9345 39.8238C66.8727 39.7566 66.7906 39.7028 66.6884 39.6625C66.5862 39.6194 66.4625 39.5979 66.3173 39.5979H64.881V41.9016H63.9289V36.2735H66.3173C66.6078 36.2735 66.866 36.3219 67.0919 36.4188C67.3178 36.5156 67.5074 36.642 67.6608 36.798C67.8167 36.954 67.9351 37.1315 68.0158 37.3306C68.0965 37.5269 68.1368 37.7259 68.1368 37.9277ZM64.881 38.7951H66.3173C66.4329 38.7951 66.5419 38.7749 66.6441 38.7345C66.749 38.6915 66.8404 38.6337 66.9184 38.5611C66.9991 38.4858 67.0623 38.3957 67.108 38.2908C67.1538 38.1859 67.1766 38.0702 67.1766 37.9438C67.1766 37.8201 67.1551 37.7058 67.1121 37.6009C67.069 37.4933 67.0085 37.4018 66.9305 37.3265C66.8552 37.2485 66.7651 37.188 66.6602 37.145C66.5553 37.0992 66.441 37.0764 66.3173 37.0764H64.881V38.7951Z" fill="white"/>
<path d="M75.0269 36.2735L77.0844 41.9016H76.096L75.4827 40.2555H73.4575C73.3633 40.5272 73.2638 40.8029 73.1589 41.0826C73.0567 41.3596 72.9585 41.6326 72.8644 41.9016H71.8719L73.9295 36.2735H75.0269ZM74.4741 37.4556L73.756 39.4567H75.1842L74.4741 37.4556Z" fill="white"/>
<path d="M79.5229 36.2735V41.0826H82.23V41.9016H78.5707V36.2735H79.5229Z" fill="white"/>
<path d="M84.6159 36.2735V41.0826H87.3231V41.9016H83.6638V36.2735H84.6159Z" fill="white"/>
</svg>
