<svg width="18" height="18" viewBox="0 0 18 18" fill="none" xmlns="http://www.w3.org/2000/svg">
<path d="M9.17008 4.72161C6.75662 4.72161 4.80884 6.66939 4.80884 9.08285C4.80884 11.4963 6.75662 13.4441 9.17008 13.4441C11.5835 13.4441 13.5313 11.4963 13.5313 9.08285C13.5313 6.66939 11.5835 4.72161 9.17008 4.72161ZM9.17008 11.9173C7.6093 11.9173 6.33559 10.6436 6.33559 9.08285C6.33559 7.52208 7.6093 6.24836 9.17008 6.24836C10.7309 6.24836 12.0046 7.52208 12.0046 9.08285C12.0046 10.6436 10.7309 11.9173 9.17008 11.9173ZM13.7099 3.52657C13.1464 3.52657 12.6914 3.98162 12.6914 4.54512C12.6914 5.10861 13.1464 5.56366 13.7099 5.56366C14.2734 5.56366 14.7285 5.11074 14.7285 4.54512C14.7287 4.41132 14.7024 4.27879 14.6513 4.15514C14.6002 4.03149 14.5251 3.91914 14.4305 3.82453C14.3359 3.72991 14.2236 3.65489 14.0999 3.60377C13.9763 3.55264 13.8437 3.52641 13.7099 3.52657ZM17.6714 9.08285C17.6714 7.90908 17.682 6.74594 17.6161 5.5743C17.5502 4.2134 17.2398 3.00561 16.2446 2.01045C15.2473 1.01317 14.0417 0.704845 12.6808 0.638927C11.507 0.573008 10.3438 0.58364 9.1722 0.58364C7.99843 0.58364 6.83529 0.573008 5.66365 0.638927C4.30276 0.704845 3.09496 1.0153 2.09981 2.01045C1.10253 3.00773 0.7942 4.2134 0.728282 5.5743C0.662364 6.74807 0.672996 7.91121 0.672996 9.08285C0.672996 10.2545 0.662364 11.4198 0.728282 12.5914C0.7942 13.9523 1.10465 15.1601 2.09981 16.1553C3.09709 17.1525 4.30276 17.4609 5.66365 17.5268C6.83742 17.5927 8.00056 17.5821 9.1722 17.5821C10.346 17.5821 11.5091 17.5927 12.6808 17.5268C14.0417 17.4609 15.2494 17.1504 16.2446 16.1553C17.2419 15.158 17.5502 13.9523 17.6161 12.5914C17.6842 11.4198 17.6714 10.2566 17.6714 9.08285ZM15.8002 14.0969C15.645 14.4839 15.4578 14.7731 15.158 15.0708C14.8582 15.3706 14.5711 15.5577 14.1841 15.713C13.0656 16.1574 10.4098 16.0574 9.17008 16.0574C7.93039 16.0574 5.27239 16.1574 4.15391 15.7151C3.7669 15.5599 3.47771 15.3727 3.18002 15.0729C2.8802 14.7731 2.69307 14.486 2.53785 14.099C2.09556 12.9784 2.1955 10.3225 2.1955 9.08285C2.1955 7.84316 2.09556 5.18517 2.53785 4.06668C2.69307 3.67968 2.8802 3.39049 3.18002 3.09279C3.47984 2.79509 3.7669 2.60584 4.15391 2.45062C5.27239 2.00833 7.93039 2.10827 9.17008 2.10827C10.4098 2.10827 13.0678 2.00833 14.1863 2.45062C14.5733 2.60584 14.8624 2.79297 15.1601 3.09279C15.46 3.39261 15.6471 3.67968 15.8023 4.06668C16.2446 5.18517 16.1447 7.84316 16.1447 9.08285C16.1447 10.3225 16.2446 12.9784 15.8002 14.0969Z" fill="#1D1D1D"/>
</svg>
