<svg width="18" height="15" viewBox="0 0 18 15" fill="none" xmlns="http://www.w3.org/2000/svg">
<path d="M17.6724 2.22259C17.0472 2.49227 16.3669 2.68635 15.6661 2.76195C16.3937 2.32972 16.9385 1.64686 17.1984 0.841504C16.5157 1.24763 15.7678 1.53242 14.9878 1.68323C14.6619 1.33474 14.2676 1.05712 13.8296 0.86767C13.3917 0.678215 12.9194 0.580986 12.4422 0.58204C10.5116 0.58204 8.95887 2.147 8.95887 4.06744C8.95887 4.33712 8.99156 4.6068 9.04467 4.86626C6.1538 4.71508 3.5755 3.33399 1.8614 1.21946C1.54908 1.75293 1.38541 2.36034 1.38742 2.97851C1.38742 4.18798 2.00237 5.25444 2.94012 5.88164C2.38749 5.85988 1.8478 5.70798 1.36495 5.43831V5.48121C1.36495 7.17488 2.56216 8.57844 4.15776 8.90123C3.85817 8.97905 3.54998 9.01886 3.24044 9.01973C3.01367 9.01973 2.79915 8.99726 2.58259 8.96661C3.02388 10.3477 4.30895 11.3508 5.83917 11.3835C4.64196 12.3213 3.14238 12.8729 1.51409 12.8729C1.22194 12.8729 0.952258 12.8627 0.672363 12.83C2.21689 13.8208 4.04948 14.3929 6.02304 14.3929C12.43 14.3929 15.9358 9.08511 15.9358 4.47809C15.9358 4.3269 15.9358 4.17572 15.9256 4.02454C16.6039 3.52808 17.1984 2.91313 17.6724 2.22259Z" fill="#1D1D1D"/>
</svg>
