<svg width="18" height="13" viewBox="0 0 18 13" fill="none" xmlns="http://www.w3.org/2000/svg">
<path d="M17.3176 2.4433C17.2208 2.08289 17.0311 1.7542 16.7673 1.49016C16.5036 1.22611 16.1752 1.03596 15.8149 0.938728C14.4887 0.582031 9.17236 0.582031 9.17236 0.582031C9.17236 0.582031 3.85607 0.582031 2.52984 0.93683C2.16939 1.03374 1.84078 1.22379 1.57702 1.48789C1.31325 1.75198 1.12362 2.08083 1.02716 2.44141C0.672363 3.76953 0.672363 6.53962 0.672363 6.53962C0.672363 6.53962 0.672363 9.30971 1.02716 10.6359C1.22259 11.3683 1.79937 11.9451 2.52984 12.1405C3.85607 12.4972 9.17236 12.4972 9.17236 12.4972C9.17236 12.4972 14.4887 12.4972 15.8149 12.1405C16.5473 11.9451 17.1221 11.3683 17.3176 10.6359C17.6724 9.30971 17.6724 6.53962 17.6724 6.53962C17.6724 6.53962 17.6724 3.76953 17.3176 2.4433ZM7.48375 9.08203V3.99721L11.8855 6.52065L7.48375 9.08203Z" fill="#1D1D1D"/>
</svg>
